%TF.GenerationSoftware,KiCad,Pcbnew,7.0.6*%
%TF.CreationDate,2023-07-22T16:05:28+01:00*%
%TF.ProjectId,ipod_usb_c_mod,69706f64-5f75-4736-925f-635f6d6f642e,rev?*%
%TF.SameCoordinates,Original*%
%TF.FileFunction,Copper,L1,Top*%
%TF.FilePolarity,Positive*%
%FSLAX46Y46*%
G04 Gerber Fmt 4.6, Leading zero omitted, Abs format (unit mm)*
G04 Created by KiCad (PCBNEW 7.0.6) date 2023-07-22 16:05:28*
%MOMM*%
%LPD*%
G01*
G04 APERTURE LIST*
G04 Aperture macros list*
%AMRoundRect*
0 Rectangle with rounded corners*
0 $1 Rounding radius*
0 $2 $3 $4 $5 $6 $7 $8 $9 X,Y pos of 4 corners*
0 Add a 4 corners polygon primitive as box body*
4,1,4,$2,$3,$4,$5,$6,$7,$8,$9,$2,$3,0*
0 Add four circle primitives for the rounded corners*
1,1,$1+$1,$2,$3*
1,1,$1+$1,$4,$5*
1,1,$1+$1,$6,$7*
1,1,$1+$1,$8,$9*
0 Add four rect primitives between the rounded corners*
20,1,$1+$1,$2,$3,$4,$5,0*
20,1,$1+$1,$4,$5,$6,$7,0*
20,1,$1+$1,$6,$7,$8,$9,0*
20,1,$1+$1,$8,$9,$2,$3,0*%
G04 Aperture macros list end*
%TA.AperFunction,SMDPad,CuDef*%
%ADD10R,0.600000X1.500000*%
%TD*%
%TA.AperFunction,SMDPad,CuDef*%
%ADD11R,0.800000X0.800000*%
%TD*%
%TA.AperFunction,SMDPad,CuDef*%
%ADD12R,1.000000X1.000000*%
%TD*%
%TA.AperFunction,SMDPad,CuDef*%
%ADD13RoundRect,0.237500X0.237500X-0.250000X0.237500X0.250000X-0.237500X0.250000X-0.237500X-0.250000X0*%
%TD*%
%TA.AperFunction,SMDPad,CuDef*%
%ADD14RoundRect,0.237500X-0.237500X0.250000X-0.237500X-0.250000X0.237500X-0.250000X0.237500X0.250000X0*%
%TD*%
%TA.AperFunction,ComponentPad*%
%ADD15O,1.300000X2.600000*%
%TD*%
%TA.AperFunction,ComponentPad*%
%ADD16O,1.300000X2.300000*%
%TD*%
%TA.AperFunction,SMDPad,CuDef*%
%ADD17R,0.270000X1.500000*%
%TD*%
%TA.AperFunction,SMDPad,CuDef*%
%ADD18R,0.520000X1.500000*%
%TD*%
%TA.AperFunction,Conductor*%
%ADD19C,0.250000*%
%TD*%
G04 APERTURE END LIST*
D10*
%TO.P,SW1,1,A*%
%TO.N,unconnected-(SW1A-A-Pad1)*%
X115764600Y-69897700D03*
%TO.P,SW1,2,B*%
%TO.N,unconnected-(SW1A-B-Pad2)*%
X116764600Y-69897700D03*
%TO.P,SW1,3,C*%
%TO.N,unconnected-(SW1A-C-Pad3)*%
X117764600Y-69897700D03*
D11*
%TO.P,SW1,4*%
%TO.N,N/C*%
X113864600Y-71065200D03*
X113864600Y-73147700D03*
X119764600Y-71077900D03*
X119764600Y-73147700D03*
%TD*%
D12*
%TO.P,D+,1,1*%
%TO.N,Net-(P2-D+)*%
X126365000Y-64886840D03*
%TD*%
D13*
%TO.P,R1,1*%
%TO.N,Net-(P2-CC)*%
X131927600Y-68146300D03*
%TO.P,R1,2*%
%TO.N,Net-(P2-SHIELD)*%
X131927600Y-66321300D03*
%TD*%
D12*
%TO.P,VCC,1,1*%
%TO.N,Net-(P2-VBUS-PadA4)*%
X120675400Y-64861440D03*
%TD*%
D14*
%TO.P,R2,1*%
%TO.N,Net-(P2-VCONN)*%
X131927600Y-69699500D03*
%TO.P,R2,2*%
%TO.N,Net-(P2-SHIELD)*%
X131927600Y-71524500D03*
%TD*%
D12*
%TO.P,D-,1,1*%
%TO.N,Net-(P2-D-)*%
X123723400Y-64886840D03*
%TD*%
D15*
%TO.P,P2,S1,SHIELD*%
%TO.N,Net-(P2-SHIELD)*%
X129921000Y-70916800D03*
D16*
X129921000Y-67091800D03*
D15*
X121281000Y-70916800D03*
D16*
X121281000Y-67091800D03*
D17*
%TO.P,P2,B5,VCONN*%
%TO.N,Net-(P2-VCONN)*%
X124351000Y-66464800D03*
D18*
%TO.P,P2,A12,GND*%
%TO.N,Net-(P2-SHIELD)*%
X128701000Y-66464800D03*
%TO.P,P2,A9,VBUS*%
%TO.N,Net-(P2-VBUS-PadA4)*%
X127951000Y-66464800D03*
D17*
%TO.P,P2,A7,D-*%
%TO.N,Net-(P2-D-)*%
X125851000Y-66464800D03*
X124851000Y-66466800D03*
%TO.P,P2,A6,D+*%
%TO.N,Net-(P2-D+)*%
X126351000Y-66464800D03*
X125351000Y-66466800D03*
%TO.P,P2,A5,CC*%
%TO.N,Net-(P2-CC)*%
X127351000Y-66464800D03*
D18*
%TO.P,P2,A4,VBUS*%
%TO.N,Net-(P2-VBUS-PadA4)*%
X123251000Y-66464800D03*
%TO.P,P2,A1,GND*%
%TO.N,Net-(P2-SHIELD)*%
X122501000Y-66464800D03*
%TD*%
D12*
%TO.P,GND,1,1*%
%TO.N,Net-(P2-SHIELD)*%
X129133600Y-64886840D03*
%TD*%
D19*
%TO.N,Net-(P2-SHIELD)*%
X121281000Y-67091800D02*
X121281000Y-70916800D01*
%TO.N,Net-(P2-D+)*%
X126351000Y-66464800D02*
X126351000Y-64723040D01*
X126351000Y-64723040D02*
X126365000Y-64709040D01*
X125351000Y-66466800D02*
X125351000Y-65429800D01*
X125351000Y-65429800D02*
X126071760Y-64709040D01*
X126071760Y-64709040D02*
X126365000Y-64709040D01*
%TO.N,Net-(P2-D-)*%
X125851000Y-66464800D02*
X125851000Y-67501800D01*
X124851000Y-67623404D02*
X124851000Y-66466800D01*
X125851000Y-67501800D02*
X125497398Y-67855402D01*
X125497398Y-67855402D02*
X125082998Y-67855402D01*
X125082998Y-67855402D02*
X124851000Y-67623404D01*
%TO.N,Net-(P2-SHIELD)*%
X129921000Y-67091800D02*
X129328000Y-67091800D01*
X129328000Y-67091800D02*
X128701000Y-66464800D01*
X131927600Y-66321300D02*
X130691500Y-66321300D01*
X130691500Y-66321300D02*
X129921000Y-67091800D01*
%TO.N,Net-(P2-CC)*%
X131927600Y-68146300D02*
X131507100Y-68566800D01*
X131507100Y-68566800D02*
X128028200Y-68566800D01*
X128028200Y-68566800D02*
X127351000Y-67889600D01*
X127351000Y-67889600D02*
X127351000Y-66464800D01*
%TO.N,Net-(P2-VCONN)*%
X131927600Y-69699500D02*
X131265300Y-69037200D01*
X131265300Y-69037200D02*
X125628400Y-69037200D01*
X125628400Y-69037200D02*
X124351000Y-67759800D01*
X124351000Y-67759800D02*
X124351000Y-66464800D01*
%TO.N,Net-(P2-SHIELD)*%
X131927600Y-71524500D02*
X130528700Y-71524500D01*
X130528700Y-71524500D02*
X129921000Y-70916800D01*
%TO.N,Net-(P2-D-)*%
X124851000Y-66466800D02*
X124851000Y-65429800D01*
X124028640Y-64607440D02*
X123723400Y-64607440D01*
X124851000Y-65429800D02*
X124028640Y-64607440D01*
%TO.N,Net-(P2-VBUS-PadA4)*%
X123251000Y-66464800D02*
X123251000Y-65742400D01*
X123251000Y-65742400D02*
X122192240Y-64683640D01*
X122192240Y-64683640D02*
X120675400Y-64683640D01*
%TO.N,Net-(P2-SHIELD)*%
X122501000Y-66464800D02*
X121908000Y-66464800D01*
X121908000Y-66464800D02*
X121281000Y-67091800D01*
X128701000Y-66464800D02*
X128701000Y-65141640D01*
X128701000Y-65141640D02*
X129133600Y-64709040D01*
%TD*%
M02*
